<svg width="17" height="17" viewBox="0 0 17 17" fill="none" xmlns="http://www.w3.org/2000/svg">
<path d="M8.49967 1.8334C12.1797 1.8334 15.1663 4.82007 15.1663 8.50007C15.1663 12.1867 12.1797 15.1667 8.49967 15.1667C4.81301 15.1667 1.83301 12.1867 1.83301 8.50007C1.83301 4.82007 4.81301 1.8334 8.49967 1.8334ZM11.0663 6.30673C11.1397 6.0734 10.9263 5.8534 10.693 5.92673L7.27967 6.9934C7.13967 7.04007 7.02634 7.14673 6.98634 7.28673L5.91967 10.7067C5.84634 10.9334 6.06634 11.1534 6.29301 11.0801L9.69301 10.0134C9.83301 9.9734 9.94634 9.86007 9.98634 9.72007L11.0663 6.30673Z" fill="white"/>
</svg>
