<svg width="33" height="33" viewBox="0 0 33 33" fill="none" xmlns="http://www.w3.org/2000/svg">
<path d="M23.8613 23.9068C24.3847 23.387 25.2238 23.387 25.7472 23.9068L29.2066 26.6993H29.2667C29.9666 27.4067 29.9666 28.5537 29.2667 29.2611C28.5668 29.9685 27.432 29.9685 26.7321 29.2611L23.8613 25.9708L23.7524 25.8479C23.5494 25.591 23.4373 25.2708 23.4373 24.9388C23.4373 24.5516 23.5899 24.1802 23.8613 23.9068ZM14.3238 2.70834C17.4044 2.70834 20.3589 3.94528 22.5372 6.14706C24.7156 8.34883 25.9394 11.3351 25.9394 14.4489C25.9394 20.933 20.7389 26.1894 14.3238 26.1894C7.90871 26.1894 2.70825 20.933 2.70825 14.4489C2.70825 7.96475 7.90871 2.70834 14.3238 2.70834Z" fill="white"/>
</svg>
